<?xml version="1.0" standalone="no"?>
<!DOCTYPE svg PUBLIC "-//W3C//DTD SVG 20010904//EN"
 "http://www.w3.org/TR/2001/REC-SVG-20010904/DTD/svg10.dtd">
<svg version="1.0" xmlns="http://www.w3.org/2000/svg"
 width="500.000000pt" height="500.000000pt" viewBox="0 0 500.000000 500.000000"
 preserveAspectRatio="xMidYMid meet">

<g transform="translate(0.000000,500.000000) scale(0.100000,-0.100000)"
fill="#000000" stroke="none">
<path d="M2430 4719 c-786 -41 -1477 -498 -1829 -1210 -158 -317 -232 -642
-231 -1009 0 -350 69 -659 216 -968 49 -105 55 -112 74 -102 11 6 20 12 20 14
0 2 -20 44 -44 92 -96 196 -170 445 -201 678 -22 162 -17 521 10 661 56 302
157 573 300 800 326 520 813 849 1430 966 140 27 482 37 636 19 382 -44 750
-184 1051 -402 37 -26 70 -48 72 -48 3 0 10 8 15 19 9 15 -1 26 -67 73 -420
299 -925 444 -1452 417z"/>
<path d="M3390 4286 c-76 -16 -154 -61 -220 -126 -216 -212 -357 -632 -469
-1402 l-29 -198 -112 -182 c-252 -408 -443 -662 -549 -730 -54 -33 -81 -35
-107 -7 -17 19 -19 36 -18 148 1 69 9 179 18 244 28 207 18 361 -27 389 -88
56 -221 -134 -383 -545 -21 -53 -41 -97 -44 -97 -9 0 -2 95 17 225 24 161 24
159 -14 163 -64 6 -87 -56 -100 -267 -9 -147 23 -256 70 -238 8 3 36 58 62
124 174 424 270 603 327 603 23 0 24 -46 2 -264 -21 -213 -16 -395 13 -451 43
-82 91 -97 177 -56 116 57 340 351 634 833 22 36 31 45 28 28 -12 -66 -15
-247 -6 -355 24 -292 105 -378 277 -293 81 40 198 147 256 236 49 74 97 186
105 246 4 33 10 40 41 53 153 63 395 266 552 463 52 65 199 282 199 294 0 3
-7 6 -15 6 -8 0 -15 -4 -15 -9 0 -5 -23 -44 -51 -87 -161 -248 -423 -507 -621
-614 l-75 -40 -6 62 c-8 85 -22 127 -57 176 -40 55 -91 72 -153 48 -57 -21
-80 -62 -80 -136 1 -97 52 -180 125 -202 38 -11 39 -13 33 -47 -30 -171 -125
-336 -237 -411 -98 -65 -150 -51 -179 48 -19 64 -16 290 5 467 l17 140 72 64
c323 289 520 542 687 883 178 362 209 640 86 762 -62 62 -126 76 -236 52z
m165 -45 c69 -31 101 -86 111 -190 26 -242 -177 -714 -450 -1051 -108 -132
-409 -431 -421 -418 -6 6 65 463 96 618 108 543 253 879 429 1001 89 61 162
74 235 40z m-394 -1666 c22 -49 35 -158 25 -199 -12 -49 -71 -24 -107 46 -24
47 -30 141 -11 176 9 15 22 22 43 22 26 0 33 -6 50 -45z"/>
<path d="M4460 2330 c0 -6 23 -41 51 -76 l50 -64 -63 -40 c-64 -42 -106 -85
-56 -59 12 6 47 27 77 46 29 19 57 31 61 26 4 -4 31 -43 59 -87 38 -59 51 -73
51 -55 0 13 -20 54 -45 91 -25 37 -45 71 -44 75 0 4 31 32 70 62 38 29 69 60
69 68 0 18 -9 12 -88 -54 -34 -29 -66 -53 -70 -53 -4 0 -24 22 -45 48 -45 60
-77 90 -77 72z"/>
<path d="M4454 1976 c-104 -47 -185 -221 -155 -334 23 -87 87 -126 158 -97
153 64 224 320 115 418 -26 24 -80 30 -118 13z m103 -38 c30 -25 46 -73 46
-136 -1 -83 -40 -163 -101 -206 -154 -108 -257 95 -138 272 51 78 144 111 193
70z"/>
<path d="M4235 1490 c-105 -23 -203 -129 -221 -239 -4 -23 -9 -41 -13 -41 -3
0 -41 32 -83 70 -42 39 -79 66 -82 61 -3 -4 68 -79 158 -165 135 -128 166
-153 176 -142 9 12 7 17 -9 26 -31 16 -26 25 22 37 86 23 180 138 193 236 15
104 -51 177 -141 157z m72 -40 c118 -72 6 -315 -155 -337 -35 -5 -44 -1 -78
30 -36 32 -38 39 -38 89 2 90 63 180 149 219 52 24 82 24 122 -1z"/>
<path d="M3643 1063 c-16 -6 -17 -29 -3 -38 13 -8 40 13 40 31 0 14 -14 17
-37 7z"/>
<path d="M3730 923 c23 -32 58 -82 78 -110 34 -49 72 -73 59 -38 -13 32 -150
205 -164 205 -9 0 0 -20 27 -57z"/>
<path d="M3306 893 c14 -32 55 -125 91 -208 37 -82 68 -152 70 -154 2 -3 8 0
14 6 7 7 -5 41 -36 108 -25 53 -45 103 -45 110 0 22 52 77 87 91 45 19 107 18
130 -3 11 -10 41 -53 68 -96 32 -52 51 -75 57 -69 13 13 -72 153 -109 182 -32
25 -101 27 -146 4 -18 -9 -48 -32 -68 -50 l-35 -35 -40 85 c-21 47 -45 85 -51
86 -9 0 -4 -19 13 -57z"/>
<path d="M1696 678 c-44 -93 -54 -123 -44 -129 10 -6 26 18 63 93 43 88 54
104 80 110 79 21 205 -50 205 -116 0 -17 -11 -67 -25 -111 -29 -94 -29 -95
-10 -95 15 0 54 114 62 186 5 35 1 46 -26 76 -37 43 -118 80 -178 81 -29 0
-43 5 -43 14 0 7 -6 13 -14 13 -7 0 -39 -54 -70 -122z"/>
<path d="M3096 710 c-59 -23 -131 -91 -147 -137 -16 -50 4 -98 54 -131 35 -23
51 -27 116 -27 62 0 86 5 131 27 58 28 119 83 107 95 -4 4 -24 -9 -45 -29 -49
-47 -93 -69 -156 -75 -109 -11 -179 32 -179 111 0 59 36 106 107 141 45 22 66
26 123 24 37 -1 70 2 73 7 10 19 -133 14 -184 -6z"/>
<path d="M2127 583 c-24 -109 -22 -134 11 -166 41 -39 99 -60 168 -60 108 -1
139 34 149 171 5 77 4 92 -8 92 -12 0 -17 -21 -22 -92 -9 -109 -15 -125 -60
-144 -62 -25 -142 -12 -195 32 -35 30 -38 63 -15 159 18 74 18 85 2 85 -7 0
-19 -31 -30 -77z"/>
<path d="M2623 615 c-17 -7 -41 -11 -52 -8 -20 5 -21 2 -21 -131 0 -114 2
-136 15 -136 12 0 15 19 15 115 l0 115 32 20 c42 26 98 34 145 21 61 -17 72
-36 86 -147 10 -82 15 -99 31 -102 13 -3 17 1 13 15 -3 10 -11 54 -17 98 -14
95 -21 110 -63 135 -38 24 -135 26 -184 5z"/>
</g>
</svg>
