<?xml version="1.0" standalone="no"?>
<!DOCTYPE svg PUBLIC "-//W3C//DTD SVG 20010904//EN"
 "http://www.w3.org/TR/2001/REC-SVG-20010904/DTD/svg10.dtd">
<svg version="1.0" xmlns="http://www.w3.org/2000/svg"
 width="500.000000pt" height="500.000000pt" viewBox="0 0 500.000000 500.000000"
 preserveAspectRatio="xMidYMid meet">

<g transform="translate(0.000000,500.000000) scale(0.100000,-0.100000)"
fill="#000000" stroke="none">
<path d="M2225 4660 c-225 -35 -415 -95 -620 -195 -465 -229 -815 -598 -1022
-1082 -253 -589 -239 -1251 40 -1845 45 -97 51 -104 81 -92 23 9 21 16 -25
113 -290 608 -288 1305 6 1906 303 619 874 1034 1570 1141 150 23 460 23 610
0 333 -51 636 -168 911 -352 121 -80 128 -83 146 -68 17 16 17 19 2 35 -27 29
-220 152 -334 212 -223 118 -466 195 -728 231 -159 22 -479 20 -637 -4z"/>
<path d="M3333 4245 c-160 -49 -307 -225 -411 -490 -95 -241 -168 -567 -238
-1060 -9 -66 -23 -132 -30 -146 -24 -48 -236 -383 -312 -494 -98 -144 -162
-225 -242 -308 -72 -76 -104 -97 -148 -97 -46 0 -56 36 -49 183 3 67 13 181
22 252 28 218 10 336 -54 350 -87 19 -185 -120 -335 -480 -68 -162 -65 -155
-65 -120 -1 17 8 91 20 165 29 190 31 174 -17 178 -30 2 -45 -2 -58 -17 -37
-41 -60 -335 -33 -425 15 -48 46 -72 69 -53 9 6 51 95 93 197 78 189 161 362
208 437 28 44 73 81 84 69 4 -4 -1 -95 -10 -204 -20 -225 -22 -378 -6 -452 14
-67 63 -120 110 -120 82 0 189 86 326 260 56 72 260 376 342 513 30 48 54 87
55 87 0 0 0 -79 -2 -176 -4 -235 14 -348 69 -429 45 -65 108 -75 201 -31 158
75 311 266 357 446 l17 69 78 40 c210 108 445 340 625 613 38 58 61 104 57
113 -6 16 -26 21 -26 6 0 -15 -114 -182 -181 -266 -85 -106 -237 -257 -329
-327 -82 -62 -187 -128 -205 -128 -6 0 -16 31 -22 70 -22 139 -85 216 -170
207 -88 -9 -129 -68 -120 -168 3 -31 12 -70 21 -86 23 -46 72 -91 106 -98 39
-9 39 -24 -4 -149 -55 -158 -140 -267 -246 -315 -51 -23 -76 -17 -100 22 -45
73 -49 232 -13 514 l16 132 81 70 c280 240 488 505 650 828 208 414 222 724
39 817 -39 20 -159 21 -220 1z m208 -48 c111 -59 130 -252 47 -502 -39 -121
-160 -365 -246 -500 -79 -123 -145 -208 -258 -332 -81 -89 -268 -263 -282
-263 -10 0 33 302 73 521 128 698 340 1096 586 1099 20 0 56 -10 80 -23z
m-417 -1596 c29 -32 45 -92 46 -168 0 -71 -1 -73 -24 -73 -29 0 -69 45 -86 96
-17 49 -8 134 16 151 23 17 28 17 48 -6z"/>
<path d="M4420 2332 c0 -14 18 -45 45 -75 51 -58 50 -62 -26 -105 -43 -24 -69
-55 -57 -68 2 -2 37 17 77 42 40 25 74 44 76 42 1 -2 26 -39 55 -82 43 -64 54
-76 62 -63 7 13 -4 36 -40 94 l-50 76 69 54 c43 34 69 61 69 74 0 10 -3 19 -7
19 -5 -1 -39 -28 -78 -60 l-70 -60 -62 68 c-53 57 -62 64 -63 44z"/>
<path d="M4394 1981 c-78 -48 -144 -172 -144 -270 1 -62 31 -126 69 -145 58
-31 108 -18 175 44 103 95 126 281 46 362 -35 34 -98 38 -146 9z m126 -49 c73
-74 35 -249 -69 -319 -92 -62 -183 12 -168 138 18 153 158 259 237 181z"/>
<path d="M4143 1495 c-83 -42 -162 -148 -163 -216 0 -14 -3 -29 -6 -32 -4 -3
-39 23 -78 58 -66 60 -96 78 -96 56 0 -12 308 -305 325 -309 22 -5 28 18 11
37 -16 17 -14 19 31 36 113 43 202 198 174 303 -24 86 -105 114 -198 67z m135
-35 c66 -62 25 -217 -76 -281 -66 -42 -130 -41 -166 2 -62 73 -4 223 109 282
43 23 106 21 133 -3z"/>
<path d="M3606 1083 c-4 -9 -2 -21 3 -26 15 -15 46 -3 49 21 3 18 -1 22 -21
22 -14 0 -28 -7 -31 -17z"/>
<path d="M3667 1013 c-9 -14 155 -232 169 -226 8 3 14 10 14 15 0 6 -35 57
-77 114 -71 96 -94 117 -106 97z"/>
<path d="M3273 982 c-10 -6 11 -62 78 -213 50 -112 92 -205 93 -206 1 -2 10 3
19 10 14 11 11 22 -29 107 -28 59 -43 103 -40 116 8 32 70 82 111 90 64 12 82
0 143 -96 45 -69 61 -87 72 -80 13 8 11 16 -9 54 -41 74 -90 136 -117 146 -59
23 -145 -1 -193 -54 -14 -14 -27 -26 -31 -26 -4 0 -24 36 -44 80 -21 44 -39
80 -39 80 -1 0 -8 -4 -14 -8z"/>
<path d="M1707 718 c-44 -93 -55 -123 -45 -129 7 -5 17 -9 21 -9 4 0 28 43 52
95 52 112 68 123 150 104 55 -13 125 -72 125 -105 0 -11 -13 -59 -29 -109 -26
-78 -27 -91 -14 -99 22 -12 28 -1 58 105 26 94 27 98 10 133 -28 58 -114 106
-190 106 -18 0 -38 7 -45 15 -7 8 -18 15 -24 14 -6 0 -37 -55 -69 -121z"/>
<path d="M3110 761 c-179 -55 -242 -225 -107 -290 53 -26 143 -28 210 -5 49
16 137 87 137 109 0 20 -37 6 -54 -20 -25 -38 -116 -76 -179 -76 -174 0 -201
159 -40 237 48 24 68 28 130 27 69 -2 93 7 57 21 -21 8 -123 6 -154 -3z"/>
<path d="M2131 625 c-29 -118 -28 -131 19 -176 70 -67 208 -77 273 -19 30 27
31 30 35 129 4 84 2 101 -11 101 -16 0 -27 -47 -27 -117 0 -58 -14 -90 -49
-108 -61 -31 -152 -13 -201 39 l-24 27 17 83 c21 101 21 112 3 119 -10 4 -19
-16 -35 -78z"/>
<path d="M2655 671 c-16 -4 -40 -13 -52 -20 -15 -7 -23 -8 -23 -1 0 5 -6 10
-14 10 -9 0 -15 -20 -20 -61 -9 -95 -7 -219 4 -219 6 0 13 -1 18 -2 4 -2 9 48
12 111 5 109 6 115 32 134 53 39 157 31 196 -15 6 -8 16 -56 23 -108 12 -102
17 -114 37 -101 11 7 12 25 1 107 -11 80 -18 103 -39 127 -35 39 -105 55 -175
38z"/>
</g>
</svg>
